<svg xmlns="http://www.w3.org/2000/svg" xmlns:xlink="http://www.w3.org/1999/xlink" width="200" zoomAndPan="magnify" viewBox="0 0 150 37.5" height="50" preserveAspectRatio="xMidYMid meet" version="1.0"><defs><g/></defs><g fill="#000000" fill-opacity="1"><g transform="translate(8.232036, 25.534539)"><g><path d="M 1.78125 0 L 1.78125 -15.84375 L 7.625 -15.84375 L 13.59375 -2.890625 L 14.328125 -2.890625 L 13.890625 -2.5 L 13.890625 -15.84375 L 17.234375 -15.84375 L 17.234375 0 L 11.34375 0 L 5.375 -12.953125 L 4.640625 -12.953125 L 5.078125 -13.34375 L 5.078125 0 Z M 1.78125 0 "/></g></g></g><g fill="#000000" fill-opacity="1"><g transform="translate(27.247068, 25.534539)"><g><path d="M 2.15625 0 L 2.15625 -11.890625 L 5.625 -11.890625 L 5.625 0 Z M 0.5625 -9.328125 L 0.5625 -11.890625 L 5.625 -11.890625 L 5.625 -9.328125 Z M 3.5 -13.0625 C 2.84375 -13.0625 2.359375 -13.226562 2.046875 -13.5625 C 1.734375 -13.90625 1.578125 -14.335938 1.578125 -14.859375 C 1.578125 -15.398438 1.734375 -15.835938 2.046875 -16.171875 C 2.359375 -16.515625 2.84375 -16.6875 3.5 -16.6875 C 4.144531 -16.6875 4.625 -16.515625 4.9375 -16.171875 C 5.25 -15.835938 5.40625 -15.398438 5.40625 -14.859375 C 5.40625 -14.335938 5.25 -13.90625 4.9375 -13.5625 C 4.625 -13.226562 4.144531 -13.0625 3.5 -13.0625 Z M 3.5 -13.0625 "/></g></g></g><g fill="#000000" fill-opacity="1"><g transform="translate(34.497096, 25.534539)"><g><path d="M 6.921875 0.40625 C 5.890625 0.40625 4.992188 0.238281 4.234375 -0.09375 C 3.484375 -0.4375 2.851562 -0.894531 2.34375 -1.46875 C 1.832031 -2.050781 1.453125 -2.707031 1.203125 -3.4375 C 0.960938 -4.164062 0.84375 -4.921875 0.84375 -5.703125 L 0.84375 -6.125 C 0.84375 -6.925781 0.972656 -7.703125 1.234375 -8.453125 C 1.492188 -9.203125 1.875 -9.863281 2.375 -10.4375 C 2.882812 -11.019531 3.519531 -11.476562 4.28125 -11.8125 C 5.039062 -12.144531 5.914062 -12.3125 6.90625 -12.3125 C 7.96875 -12.3125 8.910156 -12.101562 9.734375 -11.6875 C 10.566406 -11.269531 11.226562 -10.691406 11.71875 -9.953125 C 12.207031 -9.222656 12.484375 -8.378906 12.546875 -7.421875 L 9.140625 -7.421875 C 9.078125 -7.953125 8.859375 -8.398438 8.484375 -8.765625 C 8.117188 -9.140625 7.59375 -9.328125 6.90625 -9.328125 C 6.320312 -9.328125 5.835938 -9.179688 5.453125 -8.890625 C 5.078125 -8.609375 4.789062 -8.210938 4.59375 -7.703125 C 4.40625 -7.191406 4.3125 -6.59375 4.3125 -5.90625 C 4.3125 -5.269531 4.398438 -4.691406 4.578125 -4.171875 C 4.753906 -3.660156 5.03125 -3.265625 5.40625 -2.984375 C 5.789062 -2.703125 6.296875 -2.5625 6.921875 -2.5625 C 7.390625 -2.5625 7.785156 -2.644531 8.109375 -2.8125 C 8.429688 -2.976562 8.691406 -3.207031 8.890625 -3.5 C 9.085938 -3.800781 9.207031 -4.144531 9.25 -4.53125 L 12.625 -4.53125 C 12.582031 -3.550781 12.304688 -2.6875 11.796875 -1.9375 C 11.296875 -1.195312 10.625 -0.617188 9.78125 -0.203125 C 8.945312 0.203125 7.992188 0.40625 6.921875 0.40625 Z M 6.921875 0.40625 "/></g></g></g><g fill="#000000" fill-opacity="1"><g transform="translate(47.759867, 25.534539)"><g><path d="M 7.375 0.40625 C 6.332031 0.40625 5.40625 0.242188 4.59375 -0.078125 C 3.789062 -0.398438 3.109375 -0.84375 2.546875 -1.40625 C 1.992188 -1.96875 1.570312 -2.613281 1.28125 -3.34375 C 0.988281 -4.082031 0.84375 -4.859375 0.84375 -5.671875 L 0.84375 -6.15625 C 0.84375 -6.988281 0.988281 -7.773438 1.28125 -8.515625 C 1.582031 -9.265625 2.019531 -9.921875 2.59375 -10.484375 C 3.164062 -11.046875 3.851562 -11.488281 4.65625 -11.8125 C 5.46875 -12.144531 6.375 -12.3125 7.375 -12.3125 C 8.40625 -12.3125 9.320312 -12.144531 10.125 -11.8125 C 10.925781 -11.488281 11.609375 -11.046875 12.171875 -10.484375 C 12.734375 -9.921875 13.164062 -9.265625 13.46875 -8.515625 C 13.78125 -7.773438 13.9375 -6.988281 13.9375 -6.15625 L 13.9375 -5.671875 C 13.9375 -4.859375 13.789062 -4.082031 13.5 -3.34375 C 13.207031 -2.613281 12.78125 -1.96875 12.21875 -1.40625 C 11.664062 -0.84375 10.984375 -0.398438 10.171875 -0.078125 C 9.367188 0.242188 8.4375 0.40625 7.375 0.40625 Z M 7.375 -2.515625 C 8.0625 -2.515625 8.628906 -2.660156 9.078125 -2.953125 C 9.523438 -3.242188 9.867188 -3.648438 10.109375 -4.171875 C 10.347656 -4.691406 10.46875 -5.269531 10.46875 -5.90625 C 10.46875 -6.582031 10.34375 -7.175781 10.09375 -7.6875 C 9.84375 -8.207031 9.488281 -8.617188 9.03125 -8.921875 C 8.582031 -9.222656 8.03125 -9.375 7.375 -9.375 C 6.738281 -9.375 6.1875 -9.222656 5.71875 -8.921875 C 5.257812 -8.617188 4.910156 -8.207031 4.671875 -7.6875 C 4.429688 -7.175781 4.3125 -6.582031 4.3125 -5.90625 C 4.3125 -5.269531 4.425781 -4.691406 4.65625 -4.171875 C 4.894531 -3.648438 5.242188 -3.242188 5.703125 -2.953125 C 6.171875 -2.660156 6.726562 -2.515625 7.375 -2.515625 Z M 7.375 -2.515625 "/></g></g></g><g fill="#000000" fill-opacity="1"><g transform="translate(62.542102, 25.534539)"><g><path d="M 4.921875 0 L 4.921875 -13.171875 L 8.484375 -13.171875 L 8.484375 0 Z M 0.484375 -12.734375 L 0.484375 -15.84375 L 12.953125 -15.84375 L 12.953125 -12.734375 Z M 0.484375 -12.734375 "/></g></g></g><g fill="#000000" fill-opacity="1"><g transform="translate(74.480665, 25.534539)"><g><path d="M 7.375 0.40625 C 6.332031 0.40625 5.40625 0.242188 4.59375 -0.078125 C 3.789062 -0.398438 3.109375 -0.84375 2.546875 -1.40625 C 1.992188 -1.96875 1.570312 -2.613281 1.28125 -3.34375 C 0.988281 -4.082031 0.84375 -4.859375 0.84375 -5.671875 L 0.84375 -6.15625 C 0.84375 -6.988281 0.988281 -7.773438 1.28125 -8.515625 C 1.582031 -9.265625 2.019531 -9.921875 2.59375 -10.484375 C 3.164062 -11.046875 3.851562 -11.488281 4.65625 -11.8125 C 5.46875 -12.144531 6.375 -12.3125 7.375 -12.3125 C 8.40625 -12.3125 9.320312 -12.144531 10.125 -11.8125 C 10.925781 -11.488281 11.609375 -11.046875 12.171875 -10.484375 C 12.734375 -9.921875 13.164062 -9.265625 13.46875 -8.515625 C 13.78125 -7.773438 13.9375 -6.988281 13.9375 -6.15625 L 13.9375 -5.671875 C 13.9375 -4.859375 13.789062 -4.082031 13.5 -3.34375 C 13.207031 -2.613281 12.78125 -1.96875 12.21875 -1.40625 C 11.664062 -0.84375 10.984375 -0.398438 10.171875 -0.078125 C 9.367188 0.242188 8.4375 0.40625 7.375 0.40625 Z M 7.375 -2.515625 C 8.0625 -2.515625 8.628906 -2.660156 9.078125 -2.953125 C 9.523438 -3.242188 9.867188 -3.648438 10.109375 -4.171875 C 10.347656 -4.691406 10.46875 -5.269531 10.46875 -5.90625 C 10.46875 -6.582031 10.34375 -7.175781 10.09375 -7.6875 C 9.84375 -8.207031 9.488281 -8.617188 9.03125 -8.921875 C 8.582031 -9.222656 8.03125 -9.375 7.375 -9.375 C 6.738281 -9.375 6.1875 -9.222656 5.71875 -8.921875 C 5.257812 -8.617188 4.910156 -8.207031 4.671875 -7.6875 C 4.429688 -7.175781 4.3125 -6.582031 4.3125 -5.90625 C 4.3125 -5.269531 4.425781 -4.691406 4.65625 -4.171875 C 4.894531 -3.648438 5.242188 -3.242188 5.703125 -2.953125 C 6.171875 -2.660156 6.726562 -2.515625 7.375 -2.515625 Z M 7.375 -2.515625 "/></g></g></g><g fill="#000000" fill-opacity="1"><g transform="translate(89.2629, 25.534539)"><g><path d="M 1.578125 0 L 1.578125 -11.890625 L 4.34375 -11.890625 L 4.34375 -6.796875 L 4.28125 -6.796875 C 4.28125 -8.472656 4.632812 -9.765625 5.34375 -10.671875 C 6.0625 -11.585938 7.101562 -12.046875 8.46875 -12.046875 L 8.921875 -12.046875 L 8.921875 -9.046875 L 8.046875 -9.046875 C 7.097656 -9.046875 6.363281 -8.789062 5.84375 -8.28125 C 5.320312 -7.769531 5.0625 -7.03125 5.0625 -6.0625 L 5.0625 0 Z M 1.578125 0 "/></g></g></g><g fill="#bb06fa" fill-opacity="1"><g transform="translate(98.412439, 25.534539)"><g><path d="M 4.90625 0.09375 L 4.90625 -3.234375 L 7.859375 -3.234375 C 8.597656 -3.234375 9.265625 -3.34375 9.859375 -3.5625 C 10.453125 -3.789062 10.957031 -4.109375 11.375 -4.515625 C 11.789062 -4.929688 12.109375 -5.429688 12.328125 -6.015625 C 12.546875 -6.609375 12.65625 -7.257812 12.65625 -7.96875 C 12.65625 -8.707031 12.546875 -9.363281 12.328125 -9.9375 C 12.109375 -10.519531 11.789062 -11.015625 11.375 -11.421875 C 10.957031 -11.828125 10.453125 -12.132812 9.859375 -12.34375 C 9.265625 -12.550781 8.597656 -12.65625 7.859375 -12.65625 L 4.90625 -12.65625 L 4.90625 -15.96875 L 7.65625 -15.96875 C 9.09375 -15.96875 10.34375 -15.757812 11.40625 -15.34375 C 12.476562 -14.925781 13.375 -14.351562 14.09375 -13.625 C 14.820312 -12.90625 15.363281 -12.078125 15.71875 -11.140625 C 16.070312 -10.210938 16.25 -9.234375 16.25 -8.203125 L 16.25 -7.71875 C 16.25 -6.769531 16.070312 -5.828125 15.71875 -4.890625 C 15.363281 -3.960938 14.820312 -3.125 14.09375 -2.375 C 13.375 -1.632812 12.476562 -1.035156 11.40625 -0.578125 C 10.34375 -0.128906 9.09375 0.09375 7.65625 0.09375 Z M 1.78125 0.09375 L 1.78125 -15.96875 L 5.34375 -15.96875 L 5.34375 0.09375 Z M 1.78125 0.09375 "/></g></g></g><g fill="#bb06fa" fill-opacity="1"><g transform="translate(115.365343, 25.534539)"><g><path d="M 7.03125 0.40625 C 6.019531 0.40625 5.125 0.234375 4.34375 -0.109375 C 3.570312 -0.453125 2.929688 -0.914062 2.421875 -1.5 C 1.910156 -2.09375 1.519531 -2.753906 1.25 -3.484375 C 0.976562 -4.210938 0.84375 -4.960938 0.84375 -5.734375 L 0.84375 -6.15625 C 0.84375 -6.957031 0.976562 -7.722656 1.25 -8.453125 C 1.519531 -9.179688 1.90625 -9.832031 2.40625 -10.40625 C 2.914062 -10.988281 3.550781 -11.453125 4.3125 -11.796875 C 5.070312 -12.140625 5.9375 -12.3125 6.90625 -12.3125 C 8.175781 -12.3125 9.25 -12.023438 10.125 -11.453125 C 11 -10.878906 11.664062 -10.128906 12.125 -9.203125 C 12.59375 -8.285156 12.828125 -7.285156 12.828125 -6.203125 L 12.828125 -5.03125 L 2.296875 -5.03125 L 2.296875 -7.015625 L 10.71875 -7.015625 L 9.59375 -6.09375 C 9.59375 -6.800781 9.488281 -7.410156 9.28125 -7.921875 C 9.082031 -8.429688 8.785156 -8.816406 8.390625 -9.078125 C 7.992188 -9.347656 7.5 -9.484375 6.90625 -9.484375 C 6.289062 -9.484375 5.773438 -9.34375 5.359375 -9.0625 C 4.941406 -8.789062 4.625 -8.390625 4.40625 -7.859375 C 4.1875 -7.335938 4.078125 -6.691406 4.078125 -5.921875 C 4.078125 -5.210938 4.175781 -4.59375 4.375 -4.0625 C 4.582031 -3.539062 4.898438 -3.132812 5.328125 -2.84375 C 5.765625 -2.550781 6.332031 -2.40625 7.03125 -2.40625 C 7.664062 -2.40625 8.1875 -2.523438 8.59375 -2.765625 C 9 -3.015625 9.273438 -3.320312 9.421875 -3.6875 L 12.609375 -3.6875 C 12.429688 -2.894531 12.085938 -2.1875 11.578125 -1.5625 C 11.078125 -0.9375 10.441406 -0.453125 9.671875 -0.109375 C 8.910156 0.234375 8.03125 0.40625 7.03125 0.40625 Z M 7.03125 0.40625 "/></g></g></g><g fill="#bb06fa" fill-opacity="1"><g transform="translate(128.801753, 25.534539)"><g><path d="M 3.890625 0 L 0.328125 -11.890625 L 3.90625 -11.890625 L 7.25 0 Z M 4.96875 0 L 4.96875 -2.890625 L 8.46875 -2.890625 L 8.46875 0 Z M 6.25 0 L 9.140625 -11.890625 L 12.484375 -11.890625 L 9.390625 0 Z M 6.25 0 "/></g></g></g></svg>